<svg xmlns="http://www.w3.org/2000/svg" viewBox="0 0 600 600"><circle cx="300" cy="300" r="300" fill="#cbc2bf"/><path d="m729.03 244.94c0 33.11-12.05 55.686-36.12 67.72-7.03 3.516-29.1 8.274-66.22 14.298-24.07 4.02-36.11 13.302-36.11 27.834v60.948c0 2.532.75 10.29 2.25 23.334l2.262 24.08c0 7.53-1.758 19.836-5.274 36.876-9.528 2-20.568 4.254-33.11 6.792-4.02-15.07-6.02-25.344-6.02-30.876 0-2.496.63-6.27 1.878-11.292 1.242-5 1.896-8.766 1.896-11.298 0-3.48-3.12-13.278-9.354-29.322h-11.67c-1.548 2.508-2.064 5.766-1.56 9.774 2 8.532 2.754 15.798 2.262 21.822-8.532 6.02-20.322 14.05-35.37 24.08-3.516-.996-4.758-1.5-3.774-1.5v-53.42c-.984-2.496-3.504-3.486-7.524-3.01h-9.02l-9.02 70.72c-7.04.504-15.552.504-25.584 0-3.528-16.548-9.786-41.12-18.81-73.73h-6.02c-5.532 17.574-8.532 27.11-9.04 28.614 0 2 .624 5.886 1.884 11.652 1.242 5.772 1.878 9.654 1.878 11.658 0 1.5-.504 5.262-1.5 11.286l-2.262 18.06c-1.01.996-2.262 1.5-3.762 1.5-15.05 0-25.09-3.762-30.1-11.274-5.02-7.536-7.03-18.07-6.02-31.626l6.02-90.28c0-1.512.492-3.516 1.5-6.02.984-2.508 1.5-4.266 1.5-5.262 0-4.02-4.266-12.05-12.786-24.08-1.488-.492-9.294-2.262-23.322-5.274-8.544-2-25.35-5.508-50.41-10.536-34.626-6.504-51.924-34.35-51.924-83.52 0-73.24 30.11-134.19 90.31-182.85 2.484 13.548 6.762 31.596 12.774 54.17 4.524 1.02 14.31 3.27 29.346 6.774 3.02 1.01 18.318 6.528 45.912 16.56-14.06-8.532-32.358-22.314-54.936-41.39-8.532-10.03-12.798-26.826-12.798-50.4 0-5.52 9.54-12.05 28.608-19.584 17.04-7.02 29.85-11.02 38.38-12.04 27.08-3.492 47.904-5.274 62.46-5.274 62.694 0 113.35 16.07 151.97 48.17-12.528 14.556-34.1 30.08-64.7 46.638 12.05.504 29.604-4.242 52.674-14.298 23.06-10.02 32.85-15.05 29.346-15.05 4.01 0 12.05 8.04 24.08 24.08 9.02 12.04 16.29 22.842 21.822 32.35 16.04 28.608 26.826 59.45 32.358 92.56 0 11.556.246 19.83.75 24.834v6.02h.001zm-288.19 13.548c0-21.564-9.408-42.01-28.22-61.34-18.822-19.314-39.01-28.956-60.58-28.956-19.07 0-35.862 8.088-50.41 24.23-14.556 16.16-21.822 34.09-21.822 53.778 0 17.15 8.274 28.28 24.834 33.32 10.536 3.036 25.314 4.806 44.39 5.298h41.39c33.588.504 50.42-8.274 50.42-26.334m82.01 93.32v-23.334c-3.504-6.516-7.02-13.29-10.524-20.322-3.01-10.04-8.532-24.08-16.56-42.15l-8.286 88.04c0 7.03-1.5 10.536-4.512 10.536-2 0-3.504-.492-4.512-1.488-3.516-53.18-5.274-76.25-5.274-69.25v-26.322c-1.01-1.524-2.25-2.274-3.75-2.274-17.06 17.58-25.584 45.912-25.584 85.03 0 21.576 1.98 34.866 6.01 39.888 4.02-.996 8.532-2.754 13.548-5.262 2-1.01 7.77-1.512 17.322-1.512 9.504 0 21.06 3.01 34.596 9.02 5.02 0 7.524-13.536 7.524-40.614m170.06-104.85c0-20.2-7.524-38.25-22.572-54.15-15.06-15.888-32.37-23.85-51.912-23.85-21.07 0-40.77 9.642-59.08 28.956-18.318 19.314-27.468 39.504-27.468 60.58 0 17.568 8.52 26.334 25.584 26.334h86.53c32.598-.492 48.912-13.12 48.912-37.866" fill="#130c0e" transform="translate(-184.86 46.786)"/></svg>