<svg xmlns="http://www.w3.org/2000/svg" viewBox="0 0 600 600"><circle cx="300" cy="300" r="300" fill="#9bd3ae"/><path d="m1178.86 153.42c0 10.01-3.87 18.984-11.616 26.988-7.734 7.992-16.62 11.988-26.616 11.988-15.972 0-27.738-7.5-35.21-22.488l-35.23-1.5c-7.512 0-22.254 3.258-44.23 9.75-23.484 6.492-36.984 11.742-40.476 15.738-5.496 5.988-9.984 19.992-13.488 41.976-3.01 17.988-4.488 31.23-4.488 39.726 0 13.476 2.112 23.358 6.366 29.604 4.254 6.246 12.996 11.496 26.23 15.738 13.23 4.242 21.366 6.624 24.366 7.122 1.992 0 5.238-.246 9.75-.75h8.988c6.48 0 13.23 1.02 20.238 3 9.996 3 14.25 6.996 12.75 12-7.01-.996-19.242.504-36.726 4.5l20.976 10.488c0 6-8.496 8.988-25.476 8.988-4.512 0-10.626-.996-18.378-2.988-7.746-2.02-12.87-3-15.354-3h-9.75c-.492 4.992-2 12.48-4.5 22.476-8.508-.504-18.48-5.508-29.976-14.988-11.508-9.48-18.738-14.238-21.726-14.238-3.01 0-7.266 4.758-12.75 14.238-5.508 9.48-8.25 15.984-8.25 19.488-6.492-3.504-11.976-10.01-16.5-19.488-1.992-6.504-4.242-12.996-6.726-19.488-4.992.504-14.25 11-27.726 31.488h-3.762c-.996-1.512-4.77-12-11.238-31.488-15.492-4.992-29.976-7.488-43.476-7.488-6.492 0-16.488 1.5-29.976 4.488l-20.976-1.488c2.988-3 11.73-8.742 26.23-17.238 16.98-9.996 29.976-15 38.976-15 1.476 0 3.468.258 6 .75 2.484.516 4.5.75 6 .75 3.468 0 9.108-1.872 16.854-5.628 7.746-3.738 12.234-7.116 13.476-10.1 1.266-3.02 1.896-10.758 1.896-23.25 0-28.476-7.5-49.71-22.5-63.702-13.01-12.492-34.476-21.48-64.46-26.988-7.992 28.476-30.48 42.738-67.44 42.738-12 0-23.988-7.242-35.976-21.738-11.976-14.496-17.976-27.738-17.976-39.726 0-18.492 7.722-33.726 23.21-45.738-12.48-12.972-18.726-26.21-18.726-39.702 0-12.504 3.858-23.484 11.616-33 7.746-9.468 17.862-14.976 30.354-16.488-.996-15.972 4.242-26.976 15.738-32.976-5.496-5.484-8.238-15.222-8.238-29.21 0-16.488 5.496-30.23 16.488-41.23 10.98-10.992 24.726-16.5 41.21-16.5 18 0 32.742 6.27 44.23 18.75 14.496-49.46 45.726-74.2 93.68-74.2 24.984 0 46.968 9.996 65.964 29.988 6.996 7.488 10.488 11.496 10.488 11.976-6 0-2.988-1.128 9-3.366 11.976-2.25 20.718-3.378 26.24-3.378 19.476 0 36.714 7.242 51.714 21.738 12.984 12.996 21.984 29.472 26.988 49.46 3.48.504 8.988 1.992 16.488 4.488 10.98 5.52 16.488 14.988 16.488 28.488 0 2.508-2.02 7.254-6 14.238 31.968 17.988 47.964 42.972 47.964 74.952 0 8.988-3.492 21.504-10.488 37.482 12.996 7.482 19.476 18.486 19.476 32.97m-308.8 32.976v-9.738c0-11.484-5.616-21.984-16.854-31.476-11.25-9.492-22.62-14.238-34.1-14.238-14 0-26.976 3.246-38.976 9.726 26.478-1.488 56.47 13.758 89.93 45.726m-13.476-92.93c-7.5-8.508-13.992-17.25-19.5-26.24-20.988 5.496-31.476 11.742-31.476 18.726 6-.48 14.742.63 26.23 3.384 11.484 2.754 19.746 4.128 24.75 4.128m45.726-23.24v-32.976c-12-1.992-19.266-3-21.738-3v11.238l21.738 24.738m97.43-20.988c-6-2.496-17.25-7.5-33.726-14.988v64.45c23.472-13.5 34.71-29.988 33.726-49.46m41.2 88.45l-16.476-20.238c-9.984 7-20.11 14.12-30.366 21.366-10.254 7.242-19.12 15.378-26.592 24.36 22.482-12.01 46.974-20.484 73.43-25.488" fill="#00160b" transform="translate(-616.29 183.93)"/></svg>