<svg xmlns="http://www.w3.org/2000/svg" viewBox="0 0 600 600"><circle cx="300" cy="300" r="300" fill="#f9aa8f"/><path d="m1016.65 218.63c-22.416 53.47-66.96 80.2-133.65 80.2-12.222 0-25.476 1.524-39.726 4.572-21.384 4.584-32.08 10.968-32.08 19.12 0 2.544 1.77 5.46 5.346 8.778 3.552 3.318 6.624 4.956 9.162 4.956-12.738 0-4.08.384 25.956 1.146 30.05.762 48.888 1.146 56.53 1.146-44.3 25.956-118.39 37.914-222.26 35.886-34.13-.504-63.4-15.528-87.83-45.06-23.952-28.01-35.904-59.33-35.904-93.95 0-36.648 12.342-67.848 37.06-93.57 24.678-25.692 55.37-38.562 92.03-38.562 8.142 0 18.96 1.782 32.46 5.346 13.488 3.564 22.536 5.346 27.11 5.346 18.834 0 42.27-7.758 70.28-23.298 27.996-15.528 41.25-23.298 39.726-23.298-5.1 53.47-22.92 89.38-53.48 107.69-21.888 12.738-32.838 25.21-32.838 37.416 0 7.638 4.584 13.758 13.746 18.342 7.128 3.57 15.01 5.352 23.67 5.352 13.242 0 26.23-8.136 38.964-24.426 12.714-16.308 18.33-31.06 16.806-44.32-1.524-15.27-.504-33.618 3.06-54.984 1.01-6.12 4.698-13.62 11.06-22.524 6.366-8.916 12.1-14.388 17.19-16.428 0 4.572-1.65 12.222-4.968 22.908-3.318 10.686-4.956 18.6-4.956 23.682 0 11.202 3.048 19.854 9.162 25.956 9.15-3.552 17.298-15.01 24.444-34.374 6.096-14.754 9.654-29.02 10.686-42.762-21.396-1.02-41.892-10.686-61.49-29.03-19.608-18.342-29.4-38.19-29.4-59.57 0-3.564.492-7.128 1.536-10.698 3.048 4.584 7.626 11.718 13.734 21.384 8.658 12.726 15.282 19.09 19.878 19.09 6.096 0 9.15-6.366 9.15-19.09 0-16.29-4.338-31.06-12.984-44.3-9.678-15.786-22.16-23.682-37.428-23.682-7.134 0-17.826 3.822-32.06 11.46-14.274 7.626-27.26 11.46-38.952 11.46-3.576 0-19.374-4.596-47.37-13.758 49.38-8.13 74.09-15.516 74.09-22.15 0-17.31-33.87-29.03-101.58-35.13-6.63-.504-18.846-1.524-36.666-3.06 2.028-2.544 16.548-5.346 43.548-8.4 22.908-2.532 38.952-3.822 48.11-3.822 121.18 0 198.07 58.83 230.66 176.45 5.604-4.638 8.412-12.396 8.412-23.23 0-13.944-4.08-31.5-12.222-52.662-3.072-8.25-7.908-20.646-14.52-37.16 41.742 53.2 62.63 103.62 62.63 151.19 0 25.07-5.874 47.838-17.58 68.29-7.62 13.818-21.9 31.464-42.762 52.956-20.88 21.48-35.14 38.11-42.786 49.878 28.01-7.626 46.35-13.488 55.01-17.568 19.338-8.64 36.9-21.636 52.698-38.952 0 6.636-2.802 16.572-8.4 29.802m-333.01-300.15c0 9.15-5.1 15.01-15.27 17.556l-19.866 3.06c-7.134 3.564-17.568 17.568-31.31 42-1.536-7.626-3.822-18.318-6.876-32.08-4.584.516-12.21 4.584-22.908 12.222-4.584 3.564-11.976 8.904-22.16 16.03 3.072-18.33 13.242-36.888 30.564-55.758 18.33-20.862 36.15-31.3 53.46-31.3 22.908 0 34.37 9.432 34.37 28.27m132.9 70.25c0 8.658-4.71 15.924-14.13 21.774-9.42 5.862-18.714 8.79-27.876 8.79-12.222 0-23.18-6.876-32.838-20.628-11.73-16.806-23.682-27.75-35.904-32.862 2.544-2.532 5.604-3.81 9.174-3.81 4.584 0 12.33 3.564 23.286 10.686 10.944 7.134 17.94 10.698 21.01 10.698 2.544 0 6.738-3.564 12.6-10.698 5.85-7.128 12.342-10.686 19.476-10.686 16.8.007 25.2 8.922 25.2 26.736" fill="#200000" transform="translate(-464.86 181.07)"/></svg>