<svg xmlns="http://www.w3.org/2000/svg" viewBox="0 0 600 600"><circle cx="300" cy="300" r="300" fill="#fffbd5"/><path d="m753.87 441.31c-39.37-22.19-64.61-33.31-75.7-33.31-8.06 0-14.37 6.192-18.924 18.552-4.548 12.378-13.62 18.54-27.25 18.54-5.556 0-16.908-2.02-34.07-6.05-9.588 14.64-14.388 23.976-14.388 28.01 0 5.556 4.134 12.1 12.384 19.686 8.25 7.572 15.21 11.346 20.892 11.346 3.612 0 8.496-.75 14.694-2.274 6.186-1.5 10.326-2.262 12.384-2.262 6.198 0 9.282 11.358 9.282 34.07 0 21.702-5.04 55.01-15.14 99.92-13.13-51.48-27-77.23-41.628-77.23-2.028 0-6.186 1.512-12.492 4.56-6.318 3.01-10.98 4.524-14 4.524-14.628 0-27.75-13.362-39.37-40.13-23.21 3.54-34.83 15.402-34.83 35.604 0 10.1 4.662 18.16 14.02 24.21 9.318 6.05 14 10.362 14 12.87 0 13.638-19.944 34.584-59.814 62.838-21.19 15.14-35.838 25.734-43.896 31.782 7.04-9.07 14.11-20.922 21.2-35.568 8.06-16.65 12.11-29.52 12.11-38.616 0-5.04-5.802-12.12-17.412-21.2-11.616-9.07-17.4-18.666-17.4-28.758 0-8.568 3.01-19.16 9.07-31.794-6.564-7.572-14.37-11.37-23.46-11.37-20.19 0-30.27 6.576-30.27 19.68 0-9.08 0-2.274 0 20.436.492 16.656-12.12 24.984-37.866 24.984-19.674 0-52.746-4.554-99.16-13.626 52.49-13.13 78.73-28.27 78.73-45.42 0 2.02-1.01-4.03-3.02-18.17-2.028-15.624 9.08-29.766 33.31-42.38-4.548-23.2-16.638-34.836-36.34-34.836-3.02 0-8.592 5.304-16.65 15.882-8.08 10.626-15.642 15.912-22.698 15.912-12.12 0-27.774-13.12-46.932-39.38-9.1-13.1-22.98-32.544-41.646-58.29 11.604 6.072 23.21 12.12 34.83 18.19 15.14 7.06 27.25 10.596 36.34 10.596 7.07 0 14-6.186 20.814-18.552 6.81-12.366 15.774-18.552 26.874-18.552 1.524 0 11.616 3.02 30.28 9.1 9.576-14.634 14.388-25.488 14.388-32.556 0-6.06-3.666-12.996-10.98-20.826-7.326-7.818-14-11.73-20.06-11.73-2.532 0-6.432.75-11.742 2.274-5.286 1.512-9.198 2.274-11.718 2.274-9.1 0-13.638-11.358-13.638-34.07 0-6.06 5.814-40.62 17.424-103.71-.516 7.56 2.766 21.702 9.834 42.38 8.58 25.24 18.666 37.854 30.29 37.854 2 0 6.05-1.512 12.11-4.548 6.05-3.02 10.842-4.524 14.376-4.524 11.604 0 21.19 6.564 28.77 19.662l11.358 20.436c10.596 0 19.428-3.774 26.484-11.346 7.07-7.572 10.608-16.662 10.608-27.26 0-11.1-4.662-19.56-14-25.362-9.354-5.802-14.02-10.218-14.02-13.242 0-10.608 16.662-28.512 49.968-53.748 26.742-20.18 44.15-32.04 52.24-35.58-21.702 29.27-32.556 50.706-32.556 64.34 0 7.07 4.278 14.646 12.87 22.71 10.596 9.588 16.65 16.404 18.16 20.436 5.04 11.628 4.536 27.516-1.512 47.694 13.626 9.6 23.964 14.376 31.04 14.376 14.616 0 21.948-7.584 21.948-22.71 0-1.512-.63-6.306-1.884-14.376-1.278-8.06-1.638-12.612-1.146-13.626 2.02-7.07 15.9-10.608 41.634-10.608 16.15 0 49.698 4.548 100.69 13.638-11.11 3.02-27.762 7.56-49.956 13.62-20.19 6.06-30.29 12.87-30.29 20.436 0 3.54 1.254 9.588 3.786 18.16 2.52 8.592 3.798 14.88 3.798 18.936 0 7.06-4.548 13.62-13.626 19.662l-25.746 18.19c6.06 11.11 10.09 17.67 12.12 19.674 5.04 6.05 11.85 9.08 20.436 9.08 6.06 0 11.604-5.298 16.65-15.888 5.04-10.608 13.13-15.9 24.22-15.9 13.62 0 29.03 12.624 46.18 37.866 9.558 14.16 24.45 35.598 44.64 64.36m-168.04-43.896c0-32.29-11.874-60.31-35.592-84.04-23.718-23.718-51.726-35.58-84.02-35.58-32.814 0-61.08 11.742-84.79 35.21-23.718 23.46-35.838 51.6-36.33 84.4-.516 32.3 11.472 60.18 35.952 83.63 24.48 23.472 52.866 35.21 85.16 35.21 34.31 0 62.952-11.238 85.91-33.69 22.98-22.44 34.21-50.82 33.714-85.15m-11.358 0c0 30.786-10.35 56.29-31.04 76.44-20.706 20.2-46.44 30.29-77.21 30.29-29.778 0-55.27-10.338-76.45-31.04-21.19-20.67-31.794-45.912-31.794-75.69 0-29.26 10.71-54.38 32.15-75.32 21.468-20.94 46.818-31.428 76.09-31.428 29.26 0 54.624 10.596 76.08 31.806 21.444 21.2 32.18 46.17 32.18 74.94" fill="#211d15" transform="translate(-167.72-98.93)"/></svg>